<?xml version="1.0" encoding="utf-8"?>
<!-- Generator: Adobe Illustrator 16.0.0, SVG Export Plug-In . SVG Version: 6.00 Build 0)  -->
<!DOCTYPE svg PUBLIC "-//W3C//DTD SVG 1.1//EN" "http://www.w3.org/Graphics/SVG/1.1/DTD/svg11.dtd">
<svg version="1.1" id="Layer_1" xmlns="http://www.w3.org/2000/svg" xmlns:xlink="http://www.w3.org/1999/xlink" x="0px" y="0px"
	 width="798.24px" height="134.669px" viewBox="0 0 798.24 134.669" enable-background="new 0 0 798.24 134.669"
	 xml:space="preserve">
<g>
	<g>
		<defs>
			<path id="SVGID_1_" d="M65.938,0.97C29.285,2.626,0.918,33.676,2.569,70.344c1.665,36.649,32.731,65.014,69.381,63.381
				c36.665-1.678,65.039-32.735,63.381-69.393c-1.619-35.62-30.994-63.429-66.316-63.436C67.994,0.896,66.978,0.918,65.938,0.97"/>
		</defs>
		<clipPath id="SVGID_2_">
			<use xlink:href="#SVGID_1_"  overflow="visible"/>
		</clipPath>
		
			<radialGradient id="SVGID_3_" cx="-19.7964" cy="367.2642" r="3.7929" gradientTransform="matrix(16.6228 0 0 -16.6217 406.2684 6150.3433)" gradientUnits="userSpaceOnUse">
			<stop  offset="0" style="stop-color:#FFFFFF"/>
			<stop  offset="0.3372" style="stop-color:#E9D2B2"/>
			<stop  offset="0.6542" style="stop-color:#DAB37C"/>
			<stop  offset="0.8826" style="stop-color:#D1A25D"/>
			<stop  offset="1" style="stop-color:#CE9B51"/>
		</radialGradient>
		<rect x="0.918" y="0.896" clip-path="url(#SVGID_2_)" fill="url(#SVGID_3_)" width="136.07" height="134.461"/>
	</g>
	<g>
		<defs>
			<path id="SVGID_4_" d="M53.771,124.417c-7.437-0.733-16.317-3.074-24.053-9.775c-7.121-6.137-11.526-14.589-13.669-22.038
				c-2.185-7.601-3.111-16.481,0.515-15.786c1.104,0.208,3.033,5.102,5.128,8.656c2.168,3.675,3.909,5.708,5.556,6.952
				c0.741,0.567,3.278-5.077,6.984-8.296c2.15-1.778,4.481-2.379,4.88,2.911c0.448,6.481-0.724,14.2,1.187,14.2
				c1.747,0,5.743-1.329,14.519-2.081c3.289-0.278,5.171,0.348,2.03,4.763c-1.574,2.219-3.665,5.349-8.636,8.912
				c7.453,6.985,16.384,6.137,16.555,9.111c0.098,1.703-3.239,2.648-7.608,2.648C56.077,124.595,54.947,124.536,53.771,124.417
				 M78.856,61.699c-6.827-1.422-8.223-7.615-8.223-7.615c-0.558-2.196-0.702-4.952-0.239-8.463
				c0.915-7.363,2.917-10.797,5.182-16.504c3.029-7.656-4.358-12.134-3.148-14.941c1.654-3.815,6.934,1.03,12.843,1.389
				c5.06,0.274,8.115,0.03,12.056,0.552c5.247,0.692,11.512,2.474,14.306,5.745c2.558,3.007-1.357,6.66-6.045,4.371
				c-3.441-1.674-7.769-0.652-5.222,2.937c3.041,3.4,4.502,3.493,7.63,4.312c8.576,2.255,8.754,10.489,2.943,14.73
				c-6.595,4.837-13.305,2.826-15.971-6.652c-1.343-4.737-4.676-7.148-8.115-5.793c-3.395,1.333-1.382,7.563,1.213,13.338
				c4.476,11.445-4.593,12.656-8.067,12.656C79.467,61.758,79.054,61.725,78.856,61.699 M73.933,126.562
				c-0.076-1.516,2.154-1.904,2.154-1.904c19.919-3.93,14.095-16.979,7.052-23.642c-2.97-2.793-30.696-26.731-30.696-26.731
				c-26.431-22.76-24.316-40.524-24.316-40.524C29.426,11.89,48.549,6.467,63.033,7.734c1.7,0.144,2.648,1.159,2.333,2.593
				c-0.308,1.533-2.554,1.637-2.554,1.637c-4.611,0.282-8.745,0.741-11.867,2.863C39.284,22.671,42.7,36.031,58.27,50.899
				c1.961,1.874,4.043,3.848,6.193,5.852c0,0,3.111,2.759,9.347,8.667c11.969,11.027,18.516,16.964,18.516,16.964
				c21.107,17.567,13.873,33.631,5.837,39.216c-6.156,4.26-12.96,6.26-21.899,6.745c-0.076,0.004-0.156,0.015-0.235,0.015
				C75.211,128.358,73.983,127.858,73.933,126.562 M65.892,0.074C28.75,1.745,0,33.231,1.678,70.377
				c1.684,37.15,33.163,65.899,70.314,64.222c37.143-1.678,65.903-33.153,64.222-70.307C134.595,28.175,104.779,0.007,68.976,0
				C67.952,0,66.924,0.022,65.892,0.074"/>
		</defs>
		<clipPath id="SVGID_5_">
			<use xlink:href="#SVGID_4_"  overflow="visible"/>
		</clipPath>
		
			<radialGradient id="SVGID_6_" cx="-20.0654" cy="365.686" r="3.7933" gradientTransform="matrix(37.2094 0 0 -37.207 826.3209 13655.7539)" gradientUnits="userSpaceOnUse">
			<stop  offset="0" style="stop-color:#1ABFF1"/>
			<stop  offset="0.1013" style="stop-color:#15ABE2"/>
			<stop  offset="0.2191" style="stop-color:#1197D4"/>
			<stop  offset="0.2228" style="stop-color:#1196D3"/>
			<stop  offset="0.2823" style="stop-color:#1184C7"/>
			<stop  offset="0.3449" style="stop-color:#1077BD"/>
			<stop  offset="0.4111" style="stop-color:#0F6EB7"/>
			<stop  offset="0.4834" style="stop-color:#0E69B4"/>
			<stop  offset="0.573" style="stop-color:#0E67B2"/>
			<stop  offset="1" style="stop-color:#0E67B2"/>
		</radialGradient>
		<rect clip-path="url(#SVGID_5_)" fill="url(#SVGID_6_)" width="137.896" height="136.277"/>
	</g>
	<path fill="#FFFFFF" d="M172.973,87.378c5.382,4.308,13.897,6.993,19.818,6.993c7.263,0,11.658-3.138,11.658-9.142
		c0-4.667-1.883-7.627-7.804-10.582c-6.82-3.496-12.373-5.652-17.577-10.045c-4.661-4.126-7.976-9.145-7.976-16.593
		c0-10.393,8.602-17.656,22.958-17.656c7.885,0,14.519,1.255,20.708,3.944v11.026c0,1.615-1.528,2.152-2.783,1.078
		c-5.015-4.215-10.223-6.189-16.14-6.189c-6.363,0-9.951,2.963-9.951,7.797c0,3.504,1.25,5.922,3.587,7.808
		c4.483,3.674,10.043,6.363,14.977,8.697c9.323,4.394,14.793,9.593,14.793,20.534c0,13.627-11.573,19.275-26.273,19.275
		c-10.851,0-24.57-5.196-22.771-9.679L172.973,87.378z"/>
	<path fill="#FFFFFF" d="M227.228,31.301h15.327v25.016c3.763-3.226,8.519-5.204,14.169-5.204c11.298,0,18.74,6.552,18.74,16.052
		v36.046h-14.079V69.051c0-5.111-2.602-7.441-8.162-7.441c-3.672,0-7.082,1.611-10.669,4.208v37.395h-14.075V40.269
		c0-3.052-0.452-4.574-2.25-6.456C225.161,32.464,225.881,31.301,227.228,31.301"/>
	<path fill="#FFFFFF" d="M301.915,52.817v50.395H287.84V61.699c0-2.874-0.63-4.393-2.241-6.274
		c-1.078-1.352-0.357-2.607,0.898-2.607H301.915z M302.457,36.857c0,4.841-3.587,8.519-8.519,8.519c-4.93,0-8.519-3.678-8.519-8.519
		c0-4.837,3.589-8.515,8.519-8.515C298.87,28.342,302.457,32.02,302.457,36.857"/>
	<path fill="#FFFFFF" d="M313.395,52.821h14.975v4.93c3.678-3.589,8.162-6.637,14.434-6.637c10.669,0,18.836,6.007,18.836,17.038
		v35.061h-14.084V69.408c0-5.649-2.506-8.16-8.162-8.16c-3.941,0-7.347,1.615-10.578,4.485v37.479h-14.079V61.874
		c0-3.045-0.535-4.571-2.233-6.452C311.335,54.077,312.052,52.821,313.395,52.821"/>
	<path fill="#FFFFFF" d="M372.309,31.301h15.334v25.016c3.763-3.226,8.516-5.204,14.162-5.204c11.303,0,18.746,6.552,18.746,16.052
		v36.046h-14.077V69.051c0-5.111-2.602-7.441-8.169-7.441c-3.667,0-7.078,1.611-10.662,4.208v37.395h-14.078V40.269
		c0-3.052-0.448-4.574-2.245-6.456C370.246,32.464,370.966,31.301,372.309,31.301"/>
	<path fill="#FFFFFF" d="M452.475,60.622c-5.472,0-11.215,2.511-15.243,5.111c-1.972,1.341-3.145,0.629-3.145-1.434V54.88
		c5.291-2.33,13.275-3.767,19.282-3.767c13.897,0,21.877,5.381,21.877,16.504v35.594h-13.813v-5.471
		c-3.94,4.845-9.587,7.086-15.595,7.086c-10.043,0-16.951-6.456-16.951-15.964c0-10.761,7.446-17.479,23.228-17.479h9.058v-3.766
		C461.172,62.688,458.035,60.622,452.475,60.622 M461.172,80.708h-9.148c-6.902,0-9.592,3.138-9.592,7.89
		c0,3.944,2.332,6.634,6.456,6.634c4.839,0,9.146-2.241,12.284-5.827V80.708z"/>
	<path fill="#FFFFFF" d="M485.655,52.821h14.972v4.93c3.682-3.589,8.165-6.637,14.438-6.637c10.669,0,18.832,6.007,18.832,17.038
		v35.061h-14.084V69.408c0-5.649-2.51-8.16-8.161-8.16c-3.945,0-7.343,1.615-10.579,4.485v37.479h-14.074V61.874
		c0-3.045-0.535-4.571-2.237-6.452C483.591,54.077,484.308,52.821,485.655,52.821"/>
	<path fill="#FFFFFF" d="M572.631,33.272h24.66c14.708,0,24.031,6.726,24.031,17.575c0,6.815-2.689,11.834-7.894,14.975
		c7.264,2.781,11.656,8.066,11.656,17.394c0,13.186-10.665,19.997-26.716,19.997h-24.392V42.328c0-3.048-0.539-4.574-2.247-6.452
		C570.659,34.527,571.375,33.272,572.631,33.272 M588.595,61.788h7.709c6.723,0,10.401-2.511,10.401-9.237
		c0-6.812-3.679-9.327-10.669-9.327h-7.441V61.788z M610.024,82.412c0-7.441-4.126-10.675-12.555-10.675h-8.874V93.26h8.965
		C605.989,93.26,610.024,89.941,610.024,82.412"/>
	<path fill="#FFFFFF" d="M654.5,60.622c-5.469,0-11.207,2.511-15.243,5.111c-1.972,1.341-3.141,0.629-3.141-1.434V54.88
		c5.291-2.33,13.271-3.767,19.278-3.767c13.897,0,21.877,5.381,21.877,16.504v35.594h-13.806v-5.471
		c-3.944,4.845-9.591,7.086-15.603,7.086c-10.039,0-16.941-6.456-16.941-15.964c0-10.761,7.438-17.479,23.218-17.479h9.058v-3.766
		C663.197,62.688,660.06,60.622,654.5,60.622 M663.197,80.708h-9.145c-6.902,0-9.596,3.138-9.596,7.89
		c0,3.944,2.332,6.634,6.46,6.634c4.835,0,9.144-2.241,12.28-5.827V80.708z"/>
	<path fill="#FFFFFF" d="M687.679,52.821h14.97v4.93c3.68-3.589,8.167-6.637,14.439-6.637c10.669,0,18.83,6.007,18.83,17.038v35.061
		h-14.074V69.408c0-5.649-2.51-8.16-8.165-8.16c-3.941,0-7.351,1.615-10.579,4.485v37.479h-14.078V61.874
		c0-3.045-0.535-4.571-2.237-6.452C685.617,54.077,686.336,52.821,687.679,52.821"/>
	<path fill="#FFFFFF" d="M747.849,103.212V40.269c0-3.052-0.448-4.574-2.25-6.456c-1.072-1.348-0.353-2.511,0.994-2.511h15.33
		v41.251l17.846-19.731h16.138l-19.274,21.52l21.607,28.871h-15.514l-15.512-21.071c-1.611-2.241-2.327-2.601-4.035-2.601h-1.256
		v23.672H747.849z"/>
</g>
</svg>
